<svg width="96" height="96" viewBox="0 0 96 96" fill="none" xmlns="http://www.w3.org/2000/svg">
<path d="M70.4684 32.4206C65.7314 29.5623 63.676 22.3846 65.7636 17.503C67.4094 13.6572 73.3349 0 73.3349 0H52.7806L7 91.6659C7 91.6659 19.8382 83.0108 38.7865 91.3126C44.7117 93.9139 50.9501 96.3709 57.9754 95.9534C74.5149 94.9658 87.7386 82.1997 89.2401 65.6843C90.5727 51.1118 82.3111 39.5584 70.4766 32.4126L70.4684 32.4206ZM75.9121 64.6166C74.9807 74.0264 67.3693 81.6378 57.9595 82.5612C45.2417 83.8217 34.6677 73.2395 35.912 60.5137C36.8433 51.1039 44.4547 43.4925 53.8646 42.5611C66.5906 41.3086 77.1726 51.8908 75.9121 64.6166Z" fill="white"/>
<path d="M65.4176 63.5337C64.976 68.0057 61.3551 71.6268 56.8829 72.0602C50.8372 72.6625 45.8112 67.6283 46.4052 61.5826C46.8469 57.1105 50.468 53.4894 54.94 53.0478C60.9857 52.4538 66.0199 57.4797 65.4176 63.5337Z" fill="white"/>
</svg>
