<svg width="96" height="96" viewBox="0 0 96 96" fill="none" xmlns="http://www.w3.org/2000/svg">
<g clip-path="url(#clip0_238_5233)">
<path d="M48.121 0.000478285C21.8001 0.120899 0.560745 21.7064 0.676989 48.2158C0.796553 74.7251 22.2318 96.1166 48.5493 95.9995C74.8702 95.8791 96.1096 74.2936 95.9933 47.7876C95.8738 21.2749 74.4418 -0.116598 48.121 0.000478285ZM42.0862 45.6468C37.38 45.6468 33.5639 41.8067 33.5639 37.0668C33.5639 32.3269 37.38 28.4868 42.0862 28.4868C46.7924 28.4868 50.6053 32.3302 50.6053 37.0668C50.6053 41.8033 46.7891 45.6468 42.0862 45.6468ZM48.8815 54.9225L48.9247 54.869L48.9711 54.8155C51.4023 56.3944 54.1789 56.953 56.9521 57.0333C59.7287 57.1068 62.5584 56.8961 65.3416 56.3308C68.1214 55.7488 70.8548 54.8891 73.4952 53.7919C74.9765 53.1764 76.4511 52.5041 77.856 51.7147C77.8659 51.708 77.8726 51.7046 77.8826 51.6979C78.7561 51.1694 79.6096 50.6108 80.4466 50.0355C80.6292 49.905 80.8053 49.7678 80.978 49.6274L80.9979 49.6508L81.071 49.7377C78.9288 51.7013 76.3781 53.1597 73.7809 54.4475C71.1571 55.6919 68.4204 56.7121 65.594 57.448C62.7776 58.1806 59.8383 58.7359 56.8624 58.4616C53.9331 58.2007 50.8477 57.1671 48.8749 54.9259L48.8815 54.9225ZM70.7486 45.6468C70.7452 44.6165 71.5689 43.7869 72.5852 43.7769C73.6082 43.7736 74.4319 44.5998 74.4418 45.6267C74.4451 46.6536 73.6215 47.4932 72.6052 47.4966C71.5855 47.4999 70.7585 46.6704 70.7486 45.6468ZM56.1517 91.6844C54.3117 78.6957 65.5741 65.9745 71.9243 59.4651C73.3657 57.9899 75.5943 55.9562 77.6667 53.7953C85.9101 46.0315 87.5507 36.7557 70.6788 32.1195C67.4805 31.1862 64.1659 29.8649 60.8081 28.5302C60.7018 28.2192 60.5822 27.9248 60.4427 27.6472C60.0575 26.9782 59.3833 26.2088 58.3636 25.3357C56.1716 23.419 52.05 23.4692 48.4929 24.3189C44.5606 23.3856 40.6813 23.0544 36.9516 23.9542C20.6343 28.4834 18.0106 36.4981 17.3762 46.1552C16.5127 56.5917 16.0079 64.3689 12.0855 73.2533C7.18998 66.1418 4.3038 57.5149 4.26395 48.2057C4.15435 23.6933 23.7961 3.73353 48.1342 3.62315C72.4722 3.51276 92.2901 23.2953 92.3997 47.8077C92.4994 69.7009 76.8364 87.9681 56.1484 91.6911L56.1517 91.6844Z" fill="white"/>
<path d="M48.0777 37.1438C48.0777 40.4788 45.3941 43.1782 42.0862 43.1782C38.7782 43.1782 36.0913 40.4788 36.0913 37.1438C36.0913 33.8088 38.7749 31.1094 42.0862 31.1094C45.3974 31.1094 48.0777 33.8088 48.0777 37.1438Z" fill="white"/>
</g>
<defs>
<clipPath id="clip0_238_5233">
<rect width="96" height="96" fill="white"/>
</clipPath>
</defs>
</svg>
