<svg width="95" height="96" viewBox="0 0 95 96" fill="none" xmlns="http://www.w3.org/2000/svg">
<path d="M94.5506 48.0199V47.8338C94.4575 21.4951 73.2416 0 47.2753 0C21.309 0 0 21.4951 0 48.0199C0 74.5481 21.2125 96 47.2753 96C59.2346 96.0081 70.7367 91.4049 79.3883 83.1481C80.2404 82.3696 80.7484 81.2845 80.8005 80.1314C80.8525 78.9784 80.4444 77.8519 79.6659 76.9998C78.8874 76.1476 77.8022 75.6397 76.6492 75.5876C75.4962 75.5356 74.3697 75.9437 73.5175 76.7222L73.4245 76.8153C69.6915 80.364 65.2799 83.1219 60.4545 84.9232C55.6292 86.7246 50.4896 87.5323 45.3443 87.2979C40.199 87.0635 35.1542 85.7918 30.5126 83.5591C25.8711 81.3265 21.7285 78.1789 18.3337 74.3054L38.529 41.9198V56.9059C38.529 64.0665 41.3214 66.3968 43.6684 67.0484C46.0154 67.7 49.5358 67.2279 53.3488 61.181L64.4288 43.1897C64.7247 42.6644 65.0671 42.1658 65.4461 41.6971V50.8223C65.4461 57.5209 68.1454 62.9196 72.7962 65.5225C74.9431 66.6915 77.3665 67.2571 79.809 67.1594C82.2515 67.0616 84.622 66.3041 86.6686 64.9674C92.0407 61.4801 94.9262 55.3734 94.5506 48.0199ZM82.2639 57.4444C81.5178 57.9583 80.648 58.2635 79.7444 58.3284C78.8408 58.3933 77.9363 58.2155 77.1244 57.8134C75.2628 56.6998 74.1425 54.1899 74.1425 50.7459V40.1978C74.1425 35.1781 72.1878 31.5446 68.8402 30.6204C63.1589 28.905 58.8839 35.9227 57.2981 38.529L47.2753 54.6254V34.8057C47.1822 30.2481 45.6896 27.5487 42.8972 26.7077C41.0355 26.1525 38.2431 26.4351 35.5471 30.5306L13.1178 66.45C10.134 60.7643 8.57025 54.441 8.56015 48.0199C8.56015 26.3353 25.9597 8.74631 47.2753 8.74631C68.5909 8.74631 85.9904 26.3353 85.9904 48.0199V48.2094C86.2132 52.3914 84.8701 55.749 82.2672 57.4178L82.2639 57.4444Z" fill="white"/>
</svg>
