<svg width="1064" height="1064" viewBox="0 0 1064 1064" fill="none" xmlns="http://www.w3.org/2000/svg">
<g clip-path="url(#clip0_42_27)">
<path fill-rule="evenodd" clip-rule="evenodd" d="M412.745 60.2106C349.243 93.2544 297.289 121.216 297.3 122.353C297.329 125.289 449.708 202.376 455.116 202.188C457.577 202.106 475.424 193.899 494.775 183.953L529.965 165.873L568.396 185.606L606.826 205.343L669.761 177.094C764.592 134.527 774.442 129.862 772.898 128.295C770.849 126.216 736.835 107.963 644.553 59.432C599.954 35.9765 556.667 12.9791 548.357 8.32554C540.048 3.67202 532.115 -0.0714273 530.729 0.0010345C529.344 0.0734963 476.249 27.1681 412.745 60.2106ZM134.225 204.282L68.1193 238.39V388.087C68.1193 470.42 68.9873 537.782 70.052 537.782C71.1131 537.782 103.637 523.698 142.326 506.485L212.669 475.189V317.4L247.043 336.107C273.532 350.51 300.036 364.883 326.556 379.227L371.694 403.639L391.779 394.566C404.375 388.868 416.947 383.113 429.492 377.303C439.187 372.794 462.985 362.086 482.376 353.505C501.766 344.92 519.715 336.288 522.261 334.32C525.642 331.706 484.414 308.949 369.772 250.142C283.357 205.813 209.881 169.686 206.492 169.859C203.104 170.032 170.583 185.52 134.225 204.282ZM784.811 213.86C739.79 234.163 702.922 251.586 702.88 252.579C702.841 253.572 727.379 268.146 757.413 284.962C787.445 301.782 812.018 316.443 812.018 317.547C812.018 318.649 785.442 331.511 752.965 346.136C720.483 360.757 638.383 397.794 570.516 428.44L343.115 531.118C285.913 556.948 234.351 580.231 228.534 582.863C111.695 635.697 79.5807 650.358 75.1704 652.874C70.7356 655.408 69.7311 670.127 68.9418 744.005L68 832.119L127.114 862.206L186.227 892.293L268.197 855.34C313.281 835.017 350.166 817.324 350.166 816.021C350.166 814.722 341.835 809.299 331.657 803.967C321.475 798.634 300.455 786.829 284.943 777.728C269.431 768.626 253.964 760.276 250.568 759.168C247.174 758.064 244.445 756.132 244.501 754.872C244.557 753.616 280.653 736.489 324.708 716.81C410.278 678.593 475.762 649.138 616.348 585.631C679.213 557.239 742.086 528.864 804.967 500.507C860.23 475.59 924.484 446.488 947.753 435.838L990.06 416.473L991.001 327.356L991.946 238.243L931.99 207.502C899.012 190.596 870.825 176.805 869.347 176.856C867.87 176.902 829.83 193.553 784.811 213.86ZM973.997 535.36C965.162 539.671 947.71 547.742 935.216 553.295C922.722 558.847 899.012 569.533 882.53 577.046L852.562 590.7L851.878 668.936C851.501 711.965 849.915 746.98 848.353 746.753C844.806 746.226 788.64 717.452 732.182 687.232C691.432 665.424 688.872 664.556 679.297 669.294C673.762 672.034 640.675 686.856 605.772 702.239C570.868 717.619 541.173 731.208 539.776 732.438C538.383 733.667 608.63 771.699 695.886 816.96L854.527 899.25L922.295 864.232C959.564 844.974 991.255 827.408 992.715 825.198C996 820.23 995.719 526.84 992.43 527.237C991.129 527.393 982.832 531.049 973.997 535.36ZM598.721 879.726C586.966 884.774 575.214 889.83 563.465 894.893C527.986 910.225 534.939 910.734 492.73 889.744C464.618 875.765 452.5 871.452 447.24 873.546C443.295 875.116 409.34 890.376 371.778 907.456C334.22 924.536 302.186 938.51 300.593 938.51C284.834 938.51 311.033 954.146 412.126 1005.09L530.684 1064.82L580.567 1040.22C608.003 1026.69 663.341 999.594 703.543 980.01C743.741 960.42 776.135 943.886 775.529 943.262C774.918 942.64 741.234 925.362 700.673 904.867L626.925 867.607L598.721 879.726Z" fill="white"/>
</g>
<defs>
<clipPath id="clip0_42_27">
<rect width="1064" height="1064" fill="white"/>
</clipPath>
</defs>
</svg>
