<svg id="Layer_1" data-name="Layer 1" xmlns="http://www.w3.org/2000/svg" viewBox="0 0 94.58319 94.55083"><title>moonshot</title><g id="_ee7ef8ff" data-name="#ee7ef8ff"><path d="M33.48781,2.74a49.8289,49.8289,0,0,1,18.8304-1.73664A58.20985,58.20985,0,0,1,61.111,2.74278a52.228,52.228,0,0,1,12.5358,5.95176C68.33851,15.69447,62.82512,22.537,57.4691,29.50043a14.386,14.386,0,0,0-2.00078,2.75388c.12364.16861.36812.50582.489.67161,2.23964.37375,4.50176.60979,6.72173,1.09313a40.38009,40.38009,0,0,1-3.65592,14.71642A28.60251,28.60251,0,0,1,44.49773,63.20462a32.96359,32.96359,0,0,1-19.24628,1.83779A39.42935,39.42935,0,0,1,3.54633,52.99557,28.646,28.646,0,0,1,0,48.46009,47.67037,47.67037,0,0,1,5.42909,26.08617,47.08391,47.08391,0,0,1,27.255,5.21846,44.34756,44.34756,0,0,1,33.48781,2.74Z" transform="translate(0 -0.72458)" fill="#fff"/></g><g id="_dedceaff" data-name="#dedceaff"><path d="M74.33805,9.24813a38.4892,38.4892,0,0,1,6.67677,5.623A41.38786,41.38786,0,0,1,86.014,20.82569a36.88205,36.88205,0,0,1,3.3693,5.63984,40.60005,40.60005,0,0,1,3.2316,7.8823,47.18463,47.18463,0,0,1,1.91367,15.08455A48.81474,48.81474,0,0,1,92.62891,61.5298a47.38557,47.38557,0,0,1-25.11094,29.18,45.73443,45.73443,0,0,1-14.37922,4.19546A47.106,47.106,0,0,1,9.34354,76.1816a76.76422,76.76422,0,0,0,7.635,2.71173,57.08542,57.08542,0,0,0,23.616,1.91368A48.91036,48.91036,0,0,0,51.12673,78.0475a39.93665,39.93665,0,0,0,14.1797-9.7763,44.69394,44.69394,0,0,0,9.54025-16.57951A65.24437,65.24437,0,0,0,78.07547,35.677c2.03169.16018,4.03529.54235,6.0445.85989.41308.12645.77839-.17423,1.16056-.281a3.48322,3.48322,0,0,0-.23043-1.24768c-1.065-2.44477-2.13847-4.88674-3.10233-7.37367-1.4191-3.67-3.11358-7.22473-4.51581-10.90033C76.499,14.1995,75.25976,11.78845,74.33805,9.24813Z" transform="translate(0 -0.72458)" fill="#fff"/></g></svg>