<svg width="1000" height="1000" viewBox="0 0 1000 1000" fill="none" xmlns="http://www.w3.org/2000/svg">
<path fill-rule="evenodd" clip-rule="evenodd" d="M1000 500C1000 776.143 776.143 1000 500 1000C223.857 1000 0 776.143 0 500C0 223.857 223.857 0 500 0C776.143 0 1000 223.857 1000 500ZM517.917 369.122C469.285 389.35 372.089 431.217 226.328 494.722C202.659 504.135 190.261 513.343 189.132 522.347C187.225 537.562 206.279 543.554 232.227 551.713C235.757 552.823 239.414 553.974 243.164 555.192C268.692 563.491 303.034 573.199 320.887 573.585C337.08 573.935 355.155 567.259 375.109 553.557C511.298 461.625 581.599 415.159 586.013 414.157C589.126 413.45 593.441 412.562 596.365 415.16C599.288 417.759 599.001 422.68 598.691 424C596.804 432.048 521.996 501.596 483.289 537.58C471.226 548.796 462.669 556.751 460.92 558.568C457 562.64 453.005 566.491 449.165 570.192C425.448 593.056 407.662 610.201 450.15 638.2C470.564 651.653 486.9 662.778 503.197 673.876C521.001 686 538.758 698.093 561.733 713.153C567.587 716.99 573.177 720.976 578.622 724.857C599.337 739.625 617.947 752.894 640.94 750.777C654.302 749.548 668.103 736.984 675.111 699.516C691.675 610.965 724.234 419.103 731.759 340.041C732.418 333.114 731.589 324.249 730.923 320.357C730.257 316.466 728.865 310.921 723.807 306.816C717.815 301.956 708.567 300.931 704.432 301.004C685.625 301.335 656.772 311.367 517.917 369.122Z" fill="url(#paint0_linear_40_21)"/>
<defs>
<linearGradient id="paint0_linear_40_21" x1="50000" y1="0" x2="50000" y2="99258.3" gradientUnits="userSpaceOnUse">
<stop stop-color="#fff"/>
<stop offset="1" stop-color="#fff"/>
</linearGradient>
</defs>
</svg>
